
<svg version="1.1" id="Слой_1" xmlns="http://www.w3.org/2000/svg" xmlns:xlink="http://www.w3.org/1999/xlink" x="0px" y="0px"
	 width="92.168px" height="92.168px" viewBox="0 0 92.168 92.168" enableBackground="new 0 0 92.168 92.168" xml:space="preserve">
<rect x="0" opacity="0.99" fillRule="evenodd" clipRule="evenodd" fill="none" width="92.168" height="92.168"/>
<path fill="#3A3E49" d="M68.881,20.978c0.387-1.002,1.496-1.491,2.501-1.105c1.006,0.359,1.496,1.491,1.109,2.467l-7.737,20.285
	h6.55v-4.757c0-1.079,0.877-1.928,1.934-1.928c1.083,0,1.934,0.848,1.934,1.928v15.324c0,1.054-0.851,1.928-1.934,1.928
	c-1.057,0-1.934-0.874-1.934-1.928v-6.711h-9.232c-1.418,0-2.45-1.234-1.934-2.597L68.881,20.978z M7.35,0h77.468
	c1.083,0,1.934,0.874,1.934,1.928v71.009c0,1.054-0.851,1.929-1.934,1.929h-36.8v13.446h14.081c1.083,0,1.934,0.848,1.934,1.928
	c0,1.054-0.851,1.929-1.934,1.929H29.734c-1.057,0-1.934-0.875-1.934-1.929c0-1.079,0.877-1.928,1.934-1.928H44.15V74.866H7.35
	c-1.058,0-1.935-0.875-1.935-1.929V1.928C5.416,0.874,6.292,0,7.35,0L7.35,0z M82.884,3.856h-73.6v67.153h73.6V3.856z
	 M42.164,19.744h9c2.45,0,4.436,1.98,4.436,4.423v26.532c0,2.442-1.986,4.422-4.436,4.422h-9c-2.45,0-4.436-1.98-4.436-4.422V24.167
	C37.729,21.724,39.714,19.744,42.164,19.744L42.164,19.744z M51.164,23.601h-9c-0.31,0-0.567,0.258-0.567,0.566v26.532
	c0,0.309,0.258,0.565,0.567,0.565h9c0.309,0,0.567-0.257,0.567-0.565V24.167C51.732,23.858,51.474,23.601,51.164,23.601
	L51.164,23.601z M28.316,37.869c0-1.079,0.851-1.928,1.934-1.928c1.057,0,1.934,0.848,1.934,1.928v15.324
	c0,1.054-0.877,1.928-1.934,1.928c-1.083,0-1.934-0.874-1.934-1.928v-6.711h-9.284c-1.393,0-2.398-1.285-1.908-2.597l8.768-22.907
	c0.361-1.002,1.496-1.491,2.476-1.105c1.006,0.359,1.496,1.491,1.135,2.467L21.74,42.626h6.576V37.869z"/>
</svg>
