
<svg
          version="1.1"
          id="Слой_1"
          xmlns="http://www.w3.org/2000/svg"
          x="0px"
          y="0px"
          width="50.168px"
          height="92.168px"
          viewBox="0 0 92.168 92.168"
          enableBackground="new 0 0 92.168 92.168"
        >
          <rect
            x="0"
            opacity="0.99"
            fillRule="evenodd"
            clipRule="evenodd"
            fill="none"
            width="20.168"
            height="92.168"
          />
          <path
            fill="#ecf0f1"
            d="M68.173,70.702c-0.612,0.59-1.573,0.59-2.164,0c-0.593-0.59-0.613-1.548,0-2.158l22.467-22.46l-22.488-22.46
	c-0.592-0.59-0.592-1.568,0.021-2.158c0.592-0.59,1.552-0.59,2.144,0l23.57,23.539c0.593,0.59,0.593,1.568,0,2.158L68.173,70.702z
	 M26.16,68.544c0.592,0.611,0.592,1.568,0,2.158c-0.593,0.59-1.573,0.59-2.165,0L0.444,47.164c-0.592-0.59-0.592-1.568,0-2.158
	l23.55-23.539c0.613-0.59,1.573-0.59,2.165,0c0.592,0.59,0.612,1.568,0,2.158L3.691,46.084L26.16,68.544z"
          />
        </svg>
