<svg
          version="1.1"
          xmlns="http://www.w3.org/2000/svg"
          x="0px"
          y="0px"
          width="92.168px"
          height="92.168px"
          viewBox="0 0 92.168 92.168"
          enableBackground="new 0 0 92.168 92.168"
        >
          <rect
            x="0"
            opacity="0.99"
            fillRule="evenodd"
            clipRule="evenodd"
            fill="none"
            width="92.168"
            height="92.168"
          />
          <path
            fill="#ecf0f1"
            d="M78.477,69.069c1.147,0,2.099,0.921,2.099,2.094c0,1.144-0.952,2.093-2.099,2.093H57.311
	c-1.148,0-2.1-0.949-2.1-2.093c0-1.173,0.952-2.094,2.1-2.094H78.477z M2.1,6.436h87.967c1.148,0,2.1,0.921,2.1,2.093v75.111
	c0,1.144-0.952,2.093-2.1,2.093H2.1c-1.176,0-2.1-0.949-2.1-2.093V8.529C0,7.357,0.924,6.436,2.1,6.436L2.1,6.436z M87.969,10.623
	H4.199v10.383h83.769V10.623z M4.199,25.193v56.353h83.769V25.193H4.199z M11.199,42.721c-1.147,0-2.099-0.921-2.099-2.094
	c0-1.144,0.952-2.093,2.099-2.093h37.489c1.148,0,2.1,0.949,2.1,2.093c0,1.173-0.952,2.094-2.1,2.094H11.199z M40.905,55.728
	c1.147,0,2.1,0.949,2.1,2.094c0,1.172-0.953,2.093-2.1,2.093H11.199c-1.147,0-2.099-0.921-2.099-2.093
	c0-1.145,0.952-2.094,2.099-2.094H40.905z"
          />
        </svg>