<svg
          version="1.1"
          xmlns="http://www.w3.org/2000/svg"
          x="0px"
          y="0px"
          width="92.168px"
          height="92.168px"
          viewBox="0 0 92.168 92.168"
          enable-background="new 0 0 92.168 92.168"
        >
          <rect
            x="0"
            opacity="0.99"
            fill-rule="evenodd"
            clip-rule="evenodd"
            fill="none"
            width="92.168"
            height="92.168"
          />
          <path
            fill="#3A3E49"
            d="M12.075,24.707c-0.422,0.866-1.479,1.217-2.347,0.795c-0.869-0.421-1.221-1.474-0.799-2.339l3.168-6.504
	c0.422-0.866,1.479-1.24,2.37-0.82c0.47,0.234,0.799,0.679,0.916,1.17l3.849,11.862c0.282,0.936-0.211,1.919-1.15,2.2
	c-0.915,0.304-1.901-0.211-2.206-1.123l-2.511-7.838L12.075,24.707z M73.823,3.509c-7.51,0-13.612,6.084-13.612,13.594
	c0,7.487,6.102,13.57,13.612,13.57c7.534,0,13.636-6.084,13.636-13.57C87.459,9.593,81.357,3.509,73.823,3.509L73.823,3.509z
	 M73.823,0c9.482,0,17.156,7.65,17.156,17.103c0,9.429-7.674,17.08-17.156,17.08c-9.458,0-17.132-7.651-17.132-17.08
	C56.69,7.65,64.364,0,73.823,0L73.823,0z M56.197,85.471c0.962-0.071,1.807,0.655,1.901,1.614c0.071,0.96-0.657,1.802-1.619,1.896
	l-38.771,3.182c-0.892,0.07-1.666-0.515-1.854-1.358L1.256,41.319c-0.258-0.936,0.258-1.895,1.197-2.175
	c0.915-0.281,1.901,0.257,2.182,1.193l14.199,48.222L56.197,85.471z M42.327,81.727c-0.939,0.211-1.877-0.351-2.112-1.287
	c-0.235-0.96,0.352-1.896,1.29-2.129l24.525-5.896c8.848-2.129,9.951-4.141,12.017-12.634l4.857-19.865
	c0.235-0.959,1.174-1.52,2.112-1.309c0.962,0.234,1.526,1.193,1.291,2.129l-4.835,19.864c-2.347,9.639-4.366,12.752-14.457,15.185
	L42.327,81.727z M32.048,38.254c-0.916,0.352-1.925-0.116-2.277-1.006c-0.353-0.912,0.117-1.918,1.009-2.269l6.783-2.597
	c0.915-0.328,1.924,0.116,2.276,1.029c0.188,0.492,0.141,1.053-0.117,1.475l-5.327,11.277c-0.4,0.89-1.432,1.264-2.324,0.842
	c-0.868-0.397-1.244-1.45-0.845-2.316l3.521-7.464L32.048,38.254z M60.563,41.413c1.032,3.182-0.235,7.347-2.746,9.547
	c-2.887,2.503-6.643,1.637-7.839-2.059c-1.032-3.182,0.212-7.37,2.722-9.546C55.587,36.85,59.365,37.716,60.563,41.413
	L60.563,41.413z M57.206,42.466c-0.422-1.287-1.197-1.334-2.182-0.468c-1.502,1.287-2.324,3.931-1.714,5.826
	c0.422,1.288,1.22,1.358,2.206,0.492C56.972,47.052,57.817,44.338,57.206,42.466L57.206,42.466z M27.259,58.751
	c2.464,2.316,3.497,6.574,2.23,9.733c-1.478,3.604-5.304,4.235-8.074,1.591c-2.44-2.316-3.497-6.574-2.206-9.733
	C20.665,56.739,24.49,56.106,27.259,58.751L27.259,58.751z M24.843,61.278c-0.963-0.912-1.854-0.912-2.37,0.374
	c-0.751,1.801-0.024,4.563,1.361,5.896c0.962,0.913,1.854,0.913,2.394-0.374C26.954,65.349,26.25,62.611,24.843,61.278
	L24.843,61.278z"
          />
        </svg>