
<svg version="1.1" id="Слой_1" xmlns="http://www.w3.org/2000/svg" xmlns:xlink="http://www.w3.org/1999/xlink" x="0px" y="0px"
	 width="92.168px" height="92.168px" viewBox="0 0 92.168 92.168" enableBackground="new 0 0 92.168 92.168" xml:space="preserve">
<rect x="0" opacity="0.99" fillRule="evenodd" clipRule="evenodd" fill="none" width="92.168" height="92.168"/>
<path fill="#3A3E49" d="M19.705,50.914c-0.932,0-1.663-0.729-1.663-1.658c0-0.906,0.732-1.658,1.663-1.658h13.016
	c0.909,0,1.663,0.751,1.663,1.658c0,0.929-0.755,1.658-1.663,1.658H19.705z M11.256,13.93h69.627c0.91,0,1.663,0.751,1.663,1.658
	v41.87l9.424,18.37c0.621,1.193-0.31,2.41-1.596,2.41H1.633c-1.419,0-2.018-1.393-1.375-2.608l9.336-18.172v-41.87
	C9.593,14.682,10.325,13.93,11.256,13.93L11.256,13.93z M79.221,17.246H12.919v38.952h66.302V17.246z M79.864,59.514H12.254
	L4.338,74.922H87.78L79.864,59.514z M19.705,26.929c-0.932,0-1.663-0.729-1.663-1.658c0-0.906,0.732-1.658,1.663-1.658h36.787
	c0.91,0,1.663,0.751,1.663,1.658c0,0.929-0.754,1.658-1.663,1.658H19.705z M19.705,39.109c-0.932,0-1.663-0.752-1.663-1.658
	c0-0.928,0.732-1.658,1.663-1.658h47.808c0.932,0,1.663,0.729,1.663,1.658c0,0.906-0.731,1.658-1.663,1.658H19.705z"/>
</svg>
