<svg
          version="1.1"
          xmlns="http://www.w3.org/2000/svg"
          x="0px"
          y="0px"
          width="92.168px"
          height="92.168px"
          viewBox="0 0 92.168 92.168"
          enableBackground="new 0 0 92.168 92.168"
        >
          <rect
            x="0"
            opacity="0.99"
            fillRule="evenodd"
            clipRule="evenodd"
            fill="none"
            width="92.168"
            height="92.168"
          />
          <path
            fill="#3A3E49"
            d="M46.097,0.128c25.457,0,46.071,20.577,46.071,45.955c0,25.379-20.614,45.956-46.071,45.956
	S0,71.463,0,46.084C0,20.705,20.64,0.128,46.097,0.128L46.097,0.128z M18.18,64.957c0,1.084-0.855,1.936-1.943,1.936
	c-1.061,0-1.942-0.852-1.942-1.936V28.451c0-1.058,0.88-1.937,1.942-1.937h6.268c5.62,0,9.245,3.486,10.851,7.926
	c1.166,3.253,1.166,7.1,0,10.353c-1.554,4.363-5.153,7.771-10.851,7.771H18.18V64.957z M18.18,30.386v18.305h4.325
	c3.755,0,6.137-2.271,7.199-5.189c0.88-2.479,0.855-5.319-0.027-7.772c-1.061-2.994-3.469-5.344-7.173-5.344H18.18z M65.779,64.957
	c0,1.084-0.88,1.936-1.943,1.936c-1.087,0-1.942-0.852-1.942-1.936V28.451c0-1.058,0.855-1.937,1.942-1.937h6.241
	c5.621,0,9.272,3.486,10.852,7.926c1.165,3.253,1.165,7.1,0,10.353c-1.554,4.363-5.154,7.771-10.852,7.771h-4.299V64.957z
	 M65.779,30.386v18.305h4.299c3.756,0,6.164-2.271,7.2-5.189c0.88-2.479,0.88-5.319,0-7.772c-1.088-2.994-3.497-5.344-7.2-5.344
	H65.779z M38.458,28.554c0-1.058,0.854-1.937,1.942-1.937c1.061,0,1.943,0.878,1.943,1.937v16.29h9.685v-16.29
	c0-1.058,0.88-1.937,1.943-1.937c1.087,0,1.942,0.878,1.942,1.937v36.454c0,1.085-0.855,1.937-1.942,1.937
	c-1.062,0-1.943-0.852-1.943-1.937v-16.29h-9.685v16.29c0,1.085-0.881,1.937-1.943,1.937c-1.088,0-1.942-0.852-1.942-1.937V28.554z
	 M46.097,4.001c-23.308,0-42.212,18.847-42.212,42.083c0,23.237,18.905,42.083,42.212,42.083S88.284,69.32,88.284,46.084
	C88.284,22.848,69.404,4.001,46.097,4.001L46.097,4.001z"
          />
        </svg>