<?xml version="1.0" encoding="utf-8"?>
<!-- Generator: Adobe Illustrator 17.0.0, SVG Export Plug-In . SVG Version: 6.00 Build 0)  -->
<!DOCTYPE svg PUBLIC "-//W3C//DTD SVG 1.1//EN" "http://www.w3.org/Graphics/SVG/1.1/DTD/svg11.dtd">
<svg version="1.1" id="Слой_1" xmlns="http://www.w3.org/2000/svg" xmlns:xlink="http://www.w3.org/1999/xlink" x="0px" y="0px"
	 width="92.168px" height="92.168px" viewBox="0 0 92.168 92.168" enable-background="new 0 0 92.168 92.168" xml:space="preserve">
<rect x="0" opacity="0.99" fill-rule="evenodd" clip-rule="evenodd" fill="none" width="92.168" height="92.168"/>
<path fill="#3A3E49" d="M88.373,18.023H19.051v2.422c0,1.06-0.835,1.892-1.898,1.892c-1.037,0-1.898-0.832-1.898-1.892
	c0-5.271,0-10.568,0-15.84c0-1.059,0.861-1.891,1.898-1.891h73.118c1.037,0,1.897,0.832,1.897,1.891v59.374
	c0,1.034-0.86,1.892-1.897,1.892h-7.464c-1.063,0-1.898-0.858-1.898-1.892c0-1.059,0.835-1.891,1.898-1.891h5.566V18.023z
	 M1.897,26.296h73.118c1.038,0,1.898,0.833,1.898,1.892v59.374c0,1.034-0.86,1.892-1.898,1.892H1.897C0.86,89.454,0,88.596,0,87.562
	V28.188C0,27.129,0.86,26.296,1.897,26.296L1.897,26.296z M73.118,30.079H3.795v7.744h69.323V30.079z M3.795,41.606v44.065h69.323
	V41.606H3.795z M19.051,14.24h69.322V6.497H19.051V14.24z"/>
</svg>
