
<svg version="1.1" id="Слой_1" xmlns="http://www.w3.org/2000/svg" xmlns:xlink="http://www.w3.org/1999/xlink" x="0px" y="0px"
	 width="92.168px" height="92.168px" viewBox="0 0 92.168 92.168" enableBackground="new 0 0 92.168 92.168" xml:space="preserve">
<rect x="0" y="0" opacity="0.99" fillRule="evenodd" clipRule="evenodd" fill="none" width="92.168" height="92.168"/>
<path fill="#3A3E49" d="M82.401,61.079c-0.89,0-1.627-0.735-1.627-1.622c0-0.909,0.738-1.623,1.627-1.623h1.216v-4.327
	c0-0.887,0.738-1.623,1.627-1.623c0.912,0,1.628,0.736,1.628,1.623v4.327h1.259c0.911,0,1.627,0.714,1.627,1.623
	c0,0.887-0.716,1.622-1.627,1.622h-1.259v13.48c0,3.484,0.087,3.44,3.689,3.44c0.89,0,1.607,0.715,1.607,1.602
	c0,0.908-0.716,1.622-1.607,1.622c-5.426,0-6.945-1.233-6.945-6.664v-13.48H82.401z M16.485,12.243c0-0.887,0.716-1.623,1.628-1.623
	c0.89,0,1.628,0.736,1.628,1.623v24.451c0,5.41-1.802,9.152-4.037,10.884c-1.997,1.514-4.471,1.623-6.468,0.065
	c-2.105-1.645-3.711-5.237-3.711-10.949c0-0.908,0.738-1.623,1.628-1.623c0.911,0,1.627,0.715,1.627,1.623
	c0,4.587,1.063,7.313,2.453,8.396c0.847,0.649,1.671,0.541,2.496-0.087c1.519-1.169,2.756-4.003,2.756-8.309V12.243z M41.272,39.16
	c0.173,0.887-0.369,1.753-1.26,1.947c-0.868,0.173-1.736-0.368-1.932-1.255l-0.521-2.38h-6.793l-0.477,2.359
	c-0.195,0.866-1.042,1.449-1.91,1.276c-0.89-0.195-1.454-1.038-1.28-1.904l5.252-25.922c0.087-0.671,0.586-1.256,1.28-1.406
	c0.89-0.173,1.736,0.368,1.932,1.255L41.272,39.16z M36.844,34.227l-2.822-12.896l-2.604,12.896H36.844z M82.401,39.16
	c0.195,0.887-0.368,1.753-1.259,1.947c-0.868,0.173-1.736-0.368-1.932-1.255l-0.369-1.774h-7.076l-0.348,1.753
	c-0.173,0.866-1.041,1.449-1.909,1.276c-0.868-0.195-1.454-1.038-1.281-1.904l5.274-25.922c0.087-0.671,0.565-1.256,1.259-1.406
	c0.89-0.173,1.758,0.368,1.953,1.255L82.401,39.16z M78.125,34.833l-2.952-13.502l-2.735,13.502H78.125z M60.067,13.022
	c0.217-0.866,1.107-1.406,1.975-1.168c0.868,0.216,1.389,1.103,1.172,1.969l-6.729,26.29c-0.217,0.887-1.107,1.406-1.975,1.19
	c-0.65-0.173-1.106-0.692-1.194-1.32l-6.75-26.118c-0.217-0.865,0.304-1.753,1.172-1.969c0.868-0.216,1.736,0.303,1.975,1.168
	l5.187,20.123L60.067,13.022z M58.136,79.601c0,0.887-0.716,1.622-1.628,1.622c-0.89,0-1.627-0.735-1.627-1.622V56.384
	c0-0.909,0.738-1.623,1.627-1.623c0.912,0,1.628,0.714,1.628,1.623V79.601z M0.012,73.737c-0.109-0.887,0.542-1.688,1.432-1.775
	c0.89-0.108,1.693,0.542,1.78,1.429c0.26,2.315,1.824,3.721,3.603,4.219c1.367,0.389,2.995,0.303,4.21-0.498
	c1.107-0.735,1.78-2.142,1.368-4.198c-0.412-2.055-2.431-2.401-4.471-2.748c-3.429-0.584-6.923-1.19-7.64-6.426
	c-0.456-3.397,0.977-6.037,3.125-7.487c1.824-1.233,4.102-1.58,6.186-0.887c2.539,0.844,4.818,3.224,5.578,7.53
	c0.152,0.887-0.456,1.71-1.324,1.861c-0.89,0.152-1.736-0.433-1.889-1.32c-0.521-2.942-1.888-4.5-3.386-4.998
	c-1.129-0.368-2.366-0.173-3.342,0.476c-1.194,0.822-1.997,2.358-1.715,4.392c0.369,2.878,2.691,3.267,4.949,3.656
	c3.147,0.542,6.251,1.082,7.097,5.323c0.738,3.57-0.586,6.102-2.735,7.53c-1.997,1.298-4.645,1.558-6.902,0.931
	C2.985,79.904,0.424,77.589,0.012,73.737L0.012,73.737z M32.069,72.158c0.195-0.866,1.085-1.406,1.953-1.19
	c0.868,0.195,1.411,1.082,1.194,1.947c-0.586,2.402-1.606,4.479-2.887,5.95c-3.711,4.176-8.659,2.857-11.351-1.666
	c-2.995-5.041-2.995-12.982,0-18.024c2.431-4.09,6.88-5.8,10.657-2.359c1.194,1.082,2.192,2.64,2.908,4.479
	c0.326,0.822-0.087,1.774-0.933,2.099c-0.825,0.303-1.758-0.109-2.084-0.931c-0.542-1.385-1.259-2.51-2.083-3.267
	c-2.192-2.012-4.341-0.606-5.665,1.622c-2.387,4.003-2.387,10.711,0,14.735c1.542,2.575,3.885,3.678,6.1,1.169
	C30.832,75.641,31.613,74.04,32.069,72.158L32.069,72.158z M41.857,79.925c0,0.887-0.716,1.623-1.627,1.623
	c-0.89,0-1.628-0.736-1.628-1.623v-9.239V56.644c0-0.887,0.738-1.623,1.628-1.623h2.886c3.864,0,6.382,2.316,7.466,5.258
	c0.824,2.185,0.824,4.717,0.021,6.881c-0.738,1.99-2.148,3.656-4.189,4.522c2.019,2.359,3.299,5.021,3.364,8.18
	c0,0.887-0.716,1.622-1.606,1.644c-0.89,0.022-1.628-0.692-1.65-1.601c-0.044-3.115-1.824-5.539-4.037-7.595h-0.63V79.925z
	 M41.857,58.266v10.797h1.259c2.345,0,3.799-1.32,4.449-3.029c0.543-1.472,0.521-3.181-0.021-4.631
	c-0.651-1.753-2.148-3.138-4.428-3.138H41.857z M68.206,79.579c0,0.909-0.716,1.623-1.627,1.623c-0.89,0-1.628-0.714-1.628-1.623
	V56.362c0-0.887,0.738-1.622,1.628-1.622h3.103c4.037,0,6.577,2.315,7.706,5.279c0.824,2.229,0.803,4.804-0.022,7.032
	c-1.129,3.03-3.711,5.388-7.683,5.388h-1.476V79.579z M68.206,57.985v11.208h1.476c2.41,0,3.95-1.428,4.645-3.267
	c0.565-1.493,0.586-3.268,0-4.782c-0.65-1.774-2.192-3.159-4.645-3.159H68.206z"/>
</svg>
