
<svg version="1.1" id="Слой_1" xmlns="http://www.w3.org/2000/svg" xmlns:xlink="http://www.w3.org/1999/xlink" x="0px" y="0px"
	 width="92.168px" height="92.168px" viewBox="0 0 92.168 92.168" enable-background="new 0 0 92.168 92.168" xml:space="preserve">
<rect x="0" opacity="0.99" fill-rule="evenodd" clip-rule="evenodd" fill="none" width="92.168" height="92.168"/>
<path fill="#3A3E49" d="M34.758,60.168L4.868,91.662c-0.632,0.653-1.657,0.674-2.311,0.065c-0.653-0.609-0.676-1.631-0.065-2.282
	l29.847-31.45c-6.933-6.804-10.617-16.236-10.094-25.93C23.247,13.395,39.249-0.95,57.977,0.049
	c18.706,1,33.095,16.954,32.092,35.624c-1.003,18.67-17.005,32.994-35.733,31.994C46.88,67.275,40.143,64.515,34.758,60.168
	L34.758,60.168z M67.679,45.302l9.091,3.086c0.872,0.282,1.33,1.195,1.025,2.064c-0.283,0.848-1.199,1.304-2.071,1.022l-9.287-3.152
	c-0.349,0.696-0.741,1.369-1.177,1.977c-5.232,7.629-15.109,7.216-19.512-1c-0.327-0.63-0.632-1.304-0.894-2l-9.179,2.848
	c-0.85,0.282-1.766-0.196-2.028-1.066c-0.283-0.847,0.196-1.761,1.068-2.043l9.222-2.869c-0.349-1.631-0.501-3.304-0.48-4.891
	l-8.568-1.977c-0.872-0.218-1.417-1.087-1.221-1.957c0.196-0.869,1.068-1.413,1.962-1.216l8.154,1.891
	c0.392-2.043,1.09-4.13,2.115-5.999l-7.892-3.695c-0.807-0.392-1.156-1.347-0.785-2.151c0.392-0.826,1.352-1.174,2.158-0.783
	l8.394,3.912c0.654-0.761,1.374-1.434,2.158-2.043c-0.436-0.543-0.829-1.152-1.134-1.782c-1.722-3.652-0.85-8.085,2.224-10.802
	c3.619-3.217,9.135-3.065,12.601,0.304c2.573,2.543,3.423,6.369,2.202,9.738c-0.501,1.326-1.177,2.325-2.115,3.282
	c0.741,0.674,1.374,1.435,1.94,2.239l8.35-2.956c0.85-0.282,1.788,0.152,2.093,1c0.305,0.848-0.153,1.783-1.003,2.087l-7.87,2.782
	c0.828,1.934,1.286,4.064,1.439,6.151l9.091-1.283c0.894-0.13,1.722,0.479,1.853,1.37c0.109,0.891-0.501,1.717-1.395,1.847
	l-9.549,1.347C68.529,42.128,68.202,43.737,67.679,45.302L67.679,45.302z M64.038,31.978c-0.85-1.847-2.137-3.477-3.859-4.608
	c-0.959-0.653-0.959-2.108,0.065-2.738c1.134-0.696,2.028-1.761,2.507-3.022c0.807-2.173,0.24-4.694-1.417-6.303
	c-2.246-2.195-5.799-2.282-8.154-0.195c-1.962,1.761-2.529,4.608-1.417,6.977c0.371,0.804,0.937,1.521,1.701,2.108
	c0.981,0.783,0.981,2.238-0.196,2.825c-1.81,0.891-3.248,2.435-4.273,4.151c-2.9,4.891-3.03,11.607-0.371,16.606
	c3.248,6.064,10.094,6.303,13.953,0.696C65.782,43.801,66.414,37.151,64.038,31.978L64.038,31.978z M57.802,3.309
	c-16.918-0.913-31.394,12.041-32.31,28.908c-0.894,16.866,12.1,31.298,29.018,32.211c16.896,0.913,31.394-12.063,32.288-28.908
	C87.714,18.655,74.721,4.201,57.802,3.309L57.802,3.309z"/>
</svg>
