
<svg version="1.1" id="Слой_1" xmlns="http://www.w3.org/2000/svg" xmlns:xlink="http://www.w3.org/1999/xlink" x="0px" y="0px"
	 width="92.168px" height="92.168px" viewBox="0 0 92.168 92.168" enable-background="new 0 0 92.168 92.168" xml:space="preserve">
<rect x="0" opacity="0.99" fill-rule="evenodd" clip-rule="evenodd" fill="none" width="92.168" height="92.168"/>
<path fill="#3A3E49" d="M46.084,0.142c25.444,0,46.084,20.551,46.084,45.942c0,25.366-20.64,45.942-46.084,45.942S0,71.45,0,46.084
	C0,20.693,20.641,0.142,46.084,0.142L46.084,0.142z M32.142,55.246c0.312-1.009,1.401-1.579,2.44-1.242
	c1.013,0.336,1.584,1.423,1.246,2.433c-0.961,3.002-2.363,5.513-4.024,7.298c-5.348,5.695-11.657,2.667-14.928-3.52
	c-4.154-7.895-4.154-20.396,0-28.291c3.142-5.953,9.217-9.163,14.591-3.857c1.609,1.579,2.986,3.857,3.999,6.575
	c0.363,0.983-0.156,2.097-1.169,2.485c-1.013,0.362-2.129-0.156-2.493-1.166c-0.805-2.173-1.869-3.959-3.063-5.151
	c-3.428-3.39-6.594-0.569-8.412,2.899c-3.557,6.755-3.557,17.963,0,24.719c1.921,3.675,5.192,6.341,8.646,2.666
	C30.247,59.75,31.337,57.731,32.142,55.246L32.142,55.246z M44.967,38.552c0-1.087,0.857-1.941,1.948-1.941
	c1.064,0,1.948,0.854,1.948,1.941v5.59h5.607c1.065,0,1.948,0.855,1.948,1.942c0,1.061-0.883,1.941-1.948,1.941h-5.607v5.566
	c0,1.087-0.884,1.941-1.948,1.941c-1.091,0-1.948-0.854-1.948-1.941v-5.566H39.36c-1.065,0-1.948-0.88-1.948-1.941
	c0-1.087,0.883-1.942,1.948-1.942h5.607V38.552z M67.997,38.552c0-1.087,0.883-1.941,1.948-1.941c1.064,0,1.947,0.854,1.947,1.941
	v5.59h5.608c1.091,0,1.948,0.855,1.948,1.942c0,1.061-0.857,1.941-1.948,1.941h-5.608v5.566c0,1.087-0.883,1.941-1.947,1.941
	c-1.065,0-1.948-0.854-1.948-1.941v-5.566h-5.582c-1.091,0-1.948-0.88-1.948-1.941c0-1.087,0.857-1.942,1.948-1.942h5.582V38.552z
	 M46.084,4.024c-23.289,0-42.19,18.817-42.19,42.06c0,23.217,18.901,42.06,42.19,42.06c23.314,0,42.189-18.843,42.189-42.06
	C88.274,22.841,69.399,4.024,46.084,4.024L46.084,4.024z"/>
</svg>
