
<svg version="1.1" id="Слой_1" xmlns="http://www.w3.org/2000/svg" xmlns:xlink="http://www.w3.org/1999/xlink" x="0px" y="0px"
	 width="92.168px" height="92.168px" viewBox="0 0 92.168 92.168" enableBackground="new 0 0 92.168 92.168" xml:space="preserve">
<rect x="0" opacity="0.99" fillRule="evenodd" clipRule="evenodd" fill="none" width="92.168" height="92.168"/>
<path fill="#3A3E49" d="M30.618,65.765c1.018,0,1.817,0.797,1.817,1.811c0,0.991-0.8,1.812-1.817,1.812H10.827
	c-0.993,0-1.816-0.821-1.816-1.812c0-1.014,0.823-1.811,1.816-1.811H30.618z M1.817,13.073h88.535c0.993,0,1.816,0.822,1.816,1.812
	v62.4c0,0.99-0.823,1.811-1.816,1.811H1.817C0.8,79.095,0,78.275,0,77.285v-62.4C0,13.894,0.8,13.073,1.817,13.073L1.817,13.073z
	 M88.535,16.695H3.633v8.5h84.901V16.695z M3.633,28.818v46.655h84.901V28.818H3.633z M10.827,39.54
	c-0.993,0-1.816-0.822-1.816-1.812c0-1.014,0.823-1.811,1.816-1.811h20.105c1.018,0,1.817,0.797,1.817,1.811
	c0,0.99-0.8,1.812-1.817,1.812H10.827z M58.522,45.795c1.018,0,1.817,0.797,1.817,1.811c0,0.99-0.8,1.812-1.817,1.812H10.827
	c-0.993,0-1.816-0.822-1.816-1.812c0-1.014,0.823-1.811,1.816-1.811H58.522z M72.257,55.865c0.994,0,1.817,0.821,1.817,1.811
	c0,1.015-0.823,1.812-1.817,1.812h-61.43c-0.993,0-1.816-0.797-1.816-1.812c0-0.99,0.823-1.811,1.816-1.811H72.257z"/>
</svg>
