
<svg version="1.1" id="Слой_1" xmlns="http://www.w3.org/2000/svg" xmlns:xlink="http://www.w3.org/1999/xlink" x="0px" y="0px"
	 width="92.168px" height="92.168px" viewBox="0 0 92.168 92.168" enableBackground="new 0 0 92.168 92.168" xml:space="preserve">
<rect x="0" opacity="0.99" fillRule="evenodd" clipRule="evenodd" fill="none" width="92.168" height="92.168"/>
<path fill="#3A3E49" d="M27.181,69.545c0.597,0.615,0.597,1.58,0,2.175c-0.596,0.595-1.584,0.595-2.181,0L0.448,47.162
	c-0.597-0.596-0.597-1.559,0-2.154L25,20.448c0.596-0.595,1.584-0.595,2.181,0c0.597,0.595,0.597,1.58,0,2.175L3.72,46.095
	L27.181,69.545z M46.074,65.319c0.885,0,1.606,0.718,1.606,1.6c0,0.883-0.721,1.601-1.606,1.601s-1.605-0.718-1.605-1.601
	C44.469,66.037,45.189,65.319,46.074,65.319L46.074,65.319z M38.377,39.057c-0.041,0.861-0.762,1.498-1.626,1.457
	c-0.844-0.062-1.482-0.78-1.441-1.621c0.226-3.919,1.728-6.976,3.828-9.007c2.037-1.95,4.733-3.037,7.553-2.873
	c6.524,0.39,11.648,7.304,9.446,13.726c-1.09,3.16-3.601,6.094-6.277,8.761c-2.655,2.626-2.655,6.832-2.593,10.32
	c0,0.841-0.679,1.538-1.523,1.559c-0.844,0.02-1.544-0.657-1.564-1.498c-0.082-4.514,0.082-9.172,3.499-12.556
	c2.408-2.401,4.651-4.965,5.536-7.571c1.523-4.431-2.223-9.397-6.689-9.663c-1.975-0.123-3.848,0.657-5.248,2.011
	C39.694,33.641,38.562,36,38.377,39.057L38.377,39.057z M67.148,71.72c-0.597,0.595-1.564,0.595-2.161,0
	c-0.618-0.595-0.618-1.559-0.02-2.175l23.482-23.451L64.966,22.623c-0.597-0.595-0.597-1.58,0-2.175
	c0.618-0.595,1.584-0.595,2.182,0l24.573,24.559c0.596,0.595,0.596,1.559,0,2.154L67.148,71.72z"/>
</svg>
