
<svg version="1.1" id="Слой_1" xmlns="http://www.w3.org/2000/svg" xmlns:xlink="http://www.w3.org/1999/xlink" x="0px" y="0px"
	 width="92.168px" height="92.168px" viewBox="0 0 92.168 92.168" enableBackground="new 0 0 92.168 92.168" xml:space="preserve">
<rect x="0" y="0" opacity="0.99" fillRule="evenodd" clipRule="evenodd" fill="none" width="92.168" height="92.168"/>
<path fill="#3A3E49" d="M45.092,37.596c0.603-0.375,1.407-0.375,2.01,0l18.241,9.318c0.528,0.276,0.905,0.802,1.005,1.378
	c2.06,11.646,0.829,20.639-2.739,27.677c-3.567,7.064-9.396,12.099-16.481,15.881c-0.629,0.426-1.457,0.426-2.06,0
	c-7.111-3.782-12.915-8.817-16.482-15.881c-3.568-7.063-4.824-16.055-2.739-27.727c0.126-0.651,0.578-1.177,1.156-1.403
	L45.092,37.596z M20.997,70.458c1.03,0,1.885,0.826,1.885,1.879c0,1.027-0.829,1.853-1.885,1.878L4.792,74.291
	c-1.08,0.025-1.91-0.877-1.91-1.904V1.878C2.883,0.851,3.737,0,4.767,0h82.635c1.055,0,1.884,0.851,1.884,1.878v70.559
	c0,1.352-1.055,1.878-2.236,1.853l-15.778-0.075c-1.03-0.025-1.884-0.851-1.859-1.878c0-1.053,0.829-1.879,1.885-1.879l14.22,0.1
	v-53.1H6.651v53.1L20.997,70.458z M85.517,13.701V3.757H6.651v9.944H85.517z M47.981,42.255V87.04
	c5.251-3.231,9.522-7.34,12.261-12.749c3.115-6.187,4.246-14.127,2.537-24.471L47.981,42.255z M44.213,87.04V42.255l-14.798,7.565
	c-1.734,10.345-0.603,18.284,2.537,24.471C34.665,79.701,38.961,83.809,44.213,87.04L44.213,87.04z"/>
</svg>
