
<svg version="1.1" id="Слой_1" xmlns="http://www.w3.org/2000/svg" xmlns:xlink="http://www.w3.org/1999/xlink" x="0px" y="0px"
	 width="92.168px" height="92.168px" viewBox="0 0 92.168 92.168" enable-background="new 0 0 92.168 92.168" xml:space="preserve">
<rect x="0" opacity="0.99" fill-rule="evenodd" clip-rule="evenodd" fill="none" width="92.168" height="92.168"/>
<path fill="#3A3E49" d="M61.091,37.357l-8.196,20.672c-0.366,0.914-1.622,0.942-1.975,0.042l-4.838-12.108l-4.796,12.023
	c-0.282,0.942-1.622,1.013-1.989,0.085l-8.223-20.714l-8.196,20.686c-0.353,0.886-1.622,0.914-1.975,0.028l-4.824-12.108
	l-4.796,12.023c-0.296,0.942-1.636,1.013-2.003,0.085L0.083,34.882c-0.508-1.294,1.453-2.068,1.975-0.774l8.209,20.714l4.824-12.094
	c0.353-0.886,1.622-0.872,1.961,0l4.824,12.094l8.21-20.7c0.395-0.886,1.622-0.928,1.974-0.014l8.224,20.714l4.824-12.094
	c0.353-0.886,1.608-0.872,1.961,0.014l4.824,12.08l8.195-20.686c0.339-0.83,1.552-1.027,1.989-0.014l8.224,20.7l4.81-12.094
	c0.367-0.9,1.608-0.886,1.989,0.056l4.796,12.038l8.224-20.714c0.508-1.294,2.482-0.52,1.96,0.774l-9.183,23.161
	c-0.353,0.886-1.608,0.929-1.975,0.028l-4.824-12.108l-4.796,12.023c-0.282,0.942-1.622,1.013-2.003,0.085L61.091,37.357z"/>
</svg>
