<?xml version="1.0" encoding="utf-8"?>
<!-- Generator: Adobe Illustrator 17.0.0, SVG Export Plug-In . SVG Version: 6.00 Build 0)  -->
<!DOCTYPE svg PUBLIC "-//W3C//DTD SVG 1.1//EN" "http://www.w3.org/Graphics/SVG/1.1/DTD/svg11.dtd">
<svg version="1.1" id="Слой_1" xmlns="http://www.w3.org/2000/svg" xmlns:xlink="http://www.w3.org/1999/xlink" x="0px" y="0px"
	 width="92.168px" height="92.168px" viewBox="0 0 92.168 92.168" enable-background="new 0 0 92.168 92.168" xml:space="preserve">
<rect x="0" opacity="0.99" fill-rule="evenodd" clip-rule="evenodd" fill="none" width="92.168" height="92.168"/>
<path fill="#3A3E49" d="M37.559,68.801c-0.342,0.762-1.228,1.103-1.993,0.762c-0.765-0.321-1.107-1.204-0.785-1.967l19.447-44.232
	c0.322-0.742,1.207-1.104,1.973-0.763c0.765,0.321,1.107,1.204,0.785,1.967L37.559,68.801z M25.662,68.099
	c0.584,0.602,0.564,1.545-0.02,2.127s-1.53,0.582-2.134,0L0.438,47.146c-0.584-0.582-0.584-1.525,0-2.127l23.09-23.059
	c0.584-0.602,1.53-0.602,2.114-0.02c0.604,0.582,0.604,1.545,0.02,2.127L3.618,46.083L25.662,68.099z M68.64,70.226
	c-0.583,0.582-1.55,0.582-2.134,0c-0.583-0.582-0.583-1.525,0-2.127L88.53,46.083L66.506,24.067c-0.583-0.582-0.583-1.545,0-2.127
	c0.584-0.582,1.551-0.582,2.134,0.02l23.09,23.059c0.583,0.603,0.583,1.545,0,2.127L68.64,70.226z"/>
</svg>
