
<svg version="1.1" id="Слой_1" xmlns="http://www.w3.org/2000/svg" xmlns:xlink="http://www.w3.org/1999/xlink" x="0px" y="0px"
	 width="92.168px" height="92.168px" viewBox="0 0 92.168 92.168" enable-background="new 0 0 92.168 92.168" xml:space="preserve">
<rect x="0" opacity="0.99" fill-rule="evenodd" clip-rule="evenodd" fill="none" width="92.168" height="92.168"/>
<path fill="#3A3E49" d="M46.084,38.811c-0.363-0.983,0.13-2.122,1.143-2.485c1.012-0.388,2.128,0.13,2.492,1.139l5.737,15.039
	l5.686-15.09c0.39-0.984,1.506-1.502,2.519-1.113c0.986,0.363,1.506,1.475,1.116,2.485L57.3,58.586
	c-0.208,0.569-0.572,0.983-1.143,1.19c-1.012,0.389-2.129-0.129-2.518-1.139L46.084,38.811z M46.084,0.141
	c25.443,0,46.084,20.551,46.084,45.942c0,25.366-20.641,45.943-46.084,45.943C20.64,92.027,0,71.449,0,46.084
	C0,20.692,20.64,0.141,46.084,0.141L46.084,0.141z M46.084,4.024c-23.288,0-42.189,18.818-42.189,42.06
	c0,23.218,18.901,42.061,42.189,42.061c23.314,0,42.19-18.843,42.19-42.061C88.274,22.841,69.398,4.024,46.084,4.024L46.084,4.024z
	 M9.684,55.635c0-1.062,0.857-1.942,1.947-1.942c1.064,0,1.947,0.88,1.947,1.942c0,2.536,1.012,4.166,2.337,4.84
	c0.883,0.44,1.869,0.491,2.778,0.026c1.22-0.647,2.155-2.226,2.155-4.866V37.232c0-1.087,0.883-1.942,1.947-1.942
	c1.09,0,1.947,0.855,1.947,1.942v18.403c0,4.297-1.869,7.066-4.258,8.308c-1.999,1.035-4.388,0.983-6.361-0.026
	C11.631,62.623,9.684,59.828,9.684,55.635L9.684,55.635z M24.768,29.053c0,1.087-0.883,1.941-1.947,1.941
	c-1.09,0-1.947-0.854-1.947-1.941v-5.41c0-1.061,0.857-1.941,1.947-1.941c1.064,0,1.947,0.88,1.947,1.941V29.053z M32.453,58.43
	c-0.337,1.01-1.454,1.553-2.466,1.217c-1.013-0.336-1.558-1.45-1.22-2.459l6.595-19.671c0.338-1.01,1.428-1.553,2.441-1.217
	c0.623,0.207,1.038,0.674,1.245,1.217l6.595,19.671c0.337,1.01-0.208,2.123-1.221,2.459c-1.038,0.336-2.129-0.207-2.466-1.217
	l-0.623-1.889l-8.256,0.026L32.453,58.43z M40.035,52.684l-2.83-8.437l-2.83,8.437H40.035z M68.801,58.43
	c-0.337,1.01-1.428,1.553-2.441,1.217c-1.038-0.336-1.584-1.45-1.246-2.459l6.594-19.671c0.338-1.01,1.455-1.553,2.467-1.217
	c0.597,0.207,1.038,0.674,1.22,1.217l6.594,19.671c0.337,1.01-0.207,2.123-1.22,2.459c-1.013,0.336-2.103-0.207-2.466-1.217
	l-0.779-2.355H69.58L68.801,58.43z M76.227,52.193l-2.674-7.946l-2.674,7.972L76.227,52.193z"/>
</svg>
